<svg width="1920" height="1080" viewBox="0 0 1920 1080" fill="none" xmlns="http://www.w3.org/2000/svg">
<g id="Beach Image" clip-path="url(#clip0_159_33)">
<g id="beach">
<rect id="sand" width="1920" height="1080" fill="#FCDFA4"/>
<path id="wet-sand" d="M217 651.82C90 653.823 0 734.451 0 734.451V1080H1920V509.594C1920 509.594 1800 459.013 1705.5 460.015C1611 461.016 1519.5 520.611 1425 537.137C1330.5 553.664 1278.5 518.107 1202.5 525.119C1126.5 532.13 1056 599.737 990.5 607.249C925 614.761 861.5 578.203 780 581.208C698.5 584.212 556.5 683.37 482.5 688.378C408.5 693.386 344 649.817 217 651.82Z" fill="#EFCB83"/>
</g>
<g id="sea">
<path id="foam" d="M217 651.82C90 653.823 0 734.451 0 734.451V1080H1920V509.594C1920 509.594 1800 459.013 1705.5 460.015C1611 461.016 1519.5 520.611 1425 537.137C1330.5 553.664 1278.5 518.107 1202.5 525.119C1126.5 532.13 1056 599.737 990.5 607.249C925 614.761 861.5 578.203 780 581.208C698.5 584.212 556.5 683.37 482.5 688.378C408.5 693.386 344 649.817 217 651.82Z" fill="#F0F7FC"/>
<path id="middle" d="M995 632.411C933.5 632.411 854 607.434 780 606.435C706 605.436 562.5 713.337 475 715.834C387.5 718.332 322 668.877 205.5 677.869C89 686.861 0 763.79 0 763.79V1080H1920V539.996C1920 539.996 1777.5 477.553 1688.5 484.546C1599.5 491.54 1492.5 557.48 1421.5 564.473C1350.5 571.467 1273 550.486 1211.5 550.486C1150 550.486 1056.5 632.411 995 632.411Z" fill="#77CFF4"/>
<path id="deep" d="M727 709.5C820.976 686.474 932.522 754.523 1018 734.5C1103.48 714.477 1139 642.5 1234 635C1329 627.5 1373.5 704 1478 688.5C1582.5 673 1618.52 626.024 1692.5 605C1766.48 583.976 1920 656.016 1920 656.016L1919.5 1080H0V878.77C0 878.77 83.4783 803.184 188.951 795.175C294.423 787.165 335.413 832.217 437.886 826.711C540.359 821.204 633.024 732.526 727 709.5Z" fill="#54B9E6"/>
</g>
</g>
<defs>
<clipPath id="clip0_159_33">
<rect width="1920" height="1080" fill="white"/>
</clipPath>
</defs>
</svg>
