<svg width="536" height="536" viewBox="0 0 536 536" fill="none" xmlns="http://www.w3.org/2000/svg">
<g clip-path="url(#clip0_42_62)">
<rect width="536" height="536" rx="268" fill="white" style="fill:white;fill-opacity:1;"/>
<g clip-path="url(#clip1_42_62)">
<rect x="-692" y="-272" width="1920" height="1080" fill="#FCDFA4" style="fill:#FCDFA4;fill:color(display-p3 0.9882 0.8729 0.6424);fill-opacity:1;"/>
<path d="M-475 379.82C-602 381.823 -692 462.451 -692 462.451V808H1228V237.594C1228 237.594 1108 187.013 1013.5 188.015C919 189.016 827.5 248.611 733 265.137C638.5 281.664 586.5 246.107 510.5 253.119C434.5 260.13 364 327.737 298.5 335.249C233 342.761 169.5 306.203 88 309.208C6.5 312.212 -135.5 411.37 -209.5 416.378C-283.5 421.386 -348 377.817 -475 379.82Z" fill="#EFCB83" style="fill:#EFCB83;fill-opacity:1;"/>



  <!-- Primero #EFCB83 -->
  <path d="M303 360.411C241.5 360.411 162 335.434 88 334.435C14 333.436 -129.5 441.337 -217 443.834C-304.5 446.332 -370 396.877 -486.5 405.869C-603 414.861 -692 491.79 -692 491.79V808H1228V267.996C1228 267.996 1085.5 205.553 996.5 212.546C907.5 219.54 800.5 285.48 729.5 292.473C658.5 299.467 581 278.486 519.5 278.486C458 278.486 364.5 360.411 303 360.411Z" fill="#EFCB83" style="fill:#EFCB83;fill-opacity:1;"/>

  <!-- Luego #F0F7FC -->
  <path d="M-475 379.82C-602 381.823 -692 462.451 -692 462.451V808H1228V237.594C1228 237.594 1108 187.013 1013.5 188.015C919 189.016 827.5 248.611 733 265.137C638.5 281.664 586.5 246.107 510.5 253.119C434.5 260.13 364 327.737 298.5 335.249C233 342.761 169.5 306.203 88 309.208C6.5 312.212 -135.5 411.37 -209.5 416.378C-283.5 421.386 -348 377.817 -475 379.82Z" fill="#F0F7FC" style="fill:#F0F7FC;fill-opacity:1;"/>

  <!-- Por último #77CFF4 -->
  <path d="M35 437.5C128.976 414.474 240.522 482.523 326 462.5C411.478 442.477 447 370.5 542 363C637 355.5 681.5 432 786 416.5C890.5 401 926.519 354.024 1000.5 333C1074.48 311.976 1228 384.016 1228 384.016L1227.5 808H-692V606.77C-692 606.77 -608.522 531.184 -503.049 523.175C-397.577 515.165 -356.587 560.217 -254.114 554.711C-151.641 549.204 -58.9755 460.526 35 437.5Z" fill="#77CFF4" style="fill:#77CFF4;fill-opacity:1;"/>


</g>
</g>
<defs>
<clipPath id="clip0_42_62">
<rect width="536" height="536" rx="268" fill="white" style="fill:white;fill-opacity:1;"/>
</clipPath>
<clipPath id="clip1_42_62">
<rect width="1920" height="1080" fill="white" style="fill:white;fill-opacity:1;" transform="translate(-692 -272)"/>
</clipPath>
</defs>
</svg>
